# xmcd
#
# Track frame offsets:
#	150
#	14835
#	29179
#	52084
#	67388
#	85815
#	103109
#	125940
#	138673
#	157501
#
# Disc length: 2342 seconds
#
# Revision: 1
# Processed by: cddbd v1.5.2PL0 Copyright (c) Steve Scherf et al.
# Submitted via: audiograbber 1.83.01
#
DISCID=9b09240a
DTITLE=Hank Williams Jr. - Stormy
DYEAR=1999
DGENRE=Country
TTITLE0=They All Want To Go Wild (And I Want To Go Home)
TTITLE1=I'd Love To Knock The Hell Out Of You
TTITLE2=Gibbonsville Gold
TTITLE3=Where Would We Be Without Yankees
TTITLE4=Naked Women And Beer
TTITLE5=I Like It When It's Stormy
TTITLE6=Southern Thunder
TTITLE7=Hank Hill Is The King
TTITLE8=All Jokes Aside
TTITLE9=Sometimes I Feel Like Joe Montana
EXTD=
EXTT0=
EXTT1=
EXTT2=
EXTT3=
EXTT4=
EXTT5=
EXTT6=
EXTT7=
EXTT8=
EXTT9=
PLAYORDER=
